<svg width="42" height="45" viewBox="0 0 42 45" fill="none" xmlns="http://www.w3.org/2000/svg">
<rect width="39.9998" height="42.9978" fill="black" fill-opacity="0" transform="translate(1 1)"/>
<path d="M25.582 1.42822V9.39396H33.7191" stroke="white" stroke-width="2" stroke-miterlimit="10" stroke-linecap="round" stroke-linejoin="round"/>
<path d="M8.02344 20.6146V3.65525C8.02344 2.19914 9.22258 1 10.593 1H25.8393" stroke="white" stroke-width="2" stroke-miterlimit="10" stroke-linecap="round" stroke-linejoin="round"/>
<path d="M26.0117 1C26.0117 1 34.4057 9.47966 34.4914 9.56531V19.8437" stroke="white" stroke-width="2" stroke-miterlimit="10" stroke-linecap="round" stroke-linejoin="round"/>
<path d="M34.576 15.304H39.2013C40.1435 15.304 40.9143 16.0748 40.9143 17.017V42.2847C40.9143 43.2269 40.1435 43.9977 39.2013 43.9977H2.71306C1.77088 43.9977 1 43.2269 1 42.2847V17.017C1 16.0748 1.77088 15.304 2.71306 15.304H8.02355" stroke="white" stroke-width="2" stroke-miterlimit="10" stroke-linecap="round" stroke-linejoin="round"/>
<path d="M2.28516 16.9313L20.9575 29.6936L39.5443 16.76" stroke="white" stroke-width="2" stroke-miterlimit="10" stroke-linecap="round" stroke-linejoin="round"/>
<path d="M14.6191 25.925L1.08594 39.5439" stroke="white" stroke-width="2" stroke-miterlimit="10" stroke-linecap="round" stroke-linejoin="round"/>
<path d="M26.5254 25.925L41.0008 39.5439" stroke="white" stroke-width="2" stroke-miterlimit="10" stroke-linecap="round" stroke-linejoin="round"/>
</svg>
