<svg width="53" height="42" viewBox="0 0 53 42" fill="none" xmlns="http://www.w3.org/2000/svg">
<rect width="50.2521" height="40" fill="black" fill-opacity="0" transform="translate(1 1)"/>
<path d="M45.2009 41H19.0664" stroke="white" stroke-width="2" stroke-miterlimit="10" stroke-linecap="round" stroke-linejoin="round"/>
<path d="M45.2852 6.96655V34.9497" stroke="white" stroke-width="2" stroke-miterlimit="10" stroke-linecap="round" stroke-linejoin="round"/>
<path d="M7.05078 1H39.3197C42.597 1 45.2861 3.68908 45.2861 6.96639" stroke="white" stroke-width="2" stroke-miterlimit="10" stroke-linecap="round" stroke-linejoin="round"/>
<path d="M13.0168 7.05042H1C1 3.68908 3.68908 1 6.96639 1C10.2437 1 13.0168 3.68908 13.0168 7.05042ZM13.0168 7.05042V34.9496C13.0168 38.2269 15.7059 41 18.9832 41C22.2605 41 24.9496 38.2269 24.9496 34.9496H51.2521C51.2521 38.2269 48.563 41 45.2857 41" stroke="white" stroke-width="2" stroke-miterlimit="10" stroke-linecap="round" stroke-linejoin="round"/>
<path d="M19.6562 12.5967H38.6478" stroke="white" stroke-width="2" stroke-miterlimit="10" stroke-linecap="round" stroke-linejoin="round"/>
<path d="M19.6562 18.9832H38.6478" stroke="white" stroke-width="2" stroke-miterlimit="10" stroke-linecap="round" stroke-linejoin="round"/>
<path d="M19.6562 25.2856H32.6815" stroke="white" stroke-width="2" stroke-miterlimit="10" stroke-linecap="round" stroke-linejoin="round"/>
</svg>
