<svg width="50" height="42" viewBox="0 0 50 42" fill="none" xmlns="http://www.w3.org/2000/svg">
<rect width="47.8054" height="40.0001" fill="black" fill-opacity="0" transform="translate(1 1)"/>
<path d="M48.5684 25.2856L38.0498 36.1586L33.7324 31.7142" stroke="white" stroke-width="2" stroke-miterlimit="10" stroke-linecap="round" stroke-linejoin="round"/>
<rect width="26.5321" height="28.8095" fill="black" fill-opacity="0" transform="translate(1 8.22217)"/>
<path d="M23.6857 8.22217H2.49145C1.62798 8.22217 1 8.93645 1 9.80947L2.88393 35.4444C2.96243 36.3174 3.66891 37.0317 4.53238 37.0317H27.5321" stroke="white" stroke-width="2" stroke-miterlimit="10" stroke-linecap="round" stroke-linejoin="round"/>
<path d="M36.5592 10.127V5.68254C36.5592 5.04762 36.0097 4.49206 35.3817 4.49206H24.9416H22.0372C21.4092 4.49206 20.5457 4.01587 20.1532 3.46032L19.1328 2.03175C18.8188 1.47619 17.9553 1 17.2488 1H5.08176C4.45378 1 3.9043 1.55556 3.9043 2.19048V7.90476" stroke="white" stroke-width="2" stroke-miterlimit="10" stroke-linecap="round" stroke-linejoin="round"/>
<path d="M40.7188 10.6824V18.1427H48.0975" stroke="white" stroke-width="2" stroke-miterlimit="10" stroke-linecap="round" stroke-linejoin="round"/>
<path d="M41.0345 10.3652C41.0345 10.3652 48.7272 18.2224 48.8057 18.3017V38.5398C48.8057 39.889 47.7067 41.0001 46.4508 41.0001H30.3588C29.0244 41.0001 28.0039 39.889 28.0039 38.5398V12.8255C28.0039 11.4763 29.1029 10.3652 30.3588 10.3652H40.956" stroke="white" stroke-width="2" stroke-miterlimit="10" stroke-linecap="round" stroke-linejoin="round"/>
</svg>
